<svg width="80" height="80" viewBox="0 0 80 80" fill="none" xmlns="http://www.w3.org/2000/svg">
<rect x="0.5" y="0.5" width="79" height="79" rx="39.5" fill="url(#paint0_radial_1936_3778)" fill-opacity="0.35"/>
<rect x="0.5" y="0.5" width="79" height="79" rx="39.5" stroke="#252525"/>
<path d="M23.2177 31.0445C23.9157 33.401 25.6293 35.0132 28.212 35.4899C30.7653 35.9617 32.7063 34.8066 34.5678 33.2922C37.6516 30.7829 41.3551 30.5653 44.6712 32.6359C47.9799 34.7027 49.0323 37.811 48.7793 41.5231C48.1107 43.3663 47.2135 44.9992 45.8409 46.5051C44.2312 48.2713 43.8498 50.6926 44.7714 52.9453C45.803 55.4656 47.8149 57.0338 50.6445 57.079C53.1697 57.1181 55.3087 56.0804 56.4943 53.7996C57.8437 51.2035 57.5222 48.5854 55.6912 46.301C54.4103 44.701 53.3029 43.0582 52.869 41.0293C52.7602 38.141 53.5095 35.5082 55.5446 33.4255C57.4917 31.4331 57.7801 29.0949 56.7827 26.7799C55.6888 24.2388 53.6415 22.7012 50.6225 22.7782C48.3478 22.8344 46.7527 24.1545 45.1234 25.4317C42.5346 27.462 38.6026 27.6575 35.8255 25.9072C34.4994 25.0712 33.4054 23.9173 31.9179 23.2928C29.5137 22.2819 27.2989 22.6694 25.3494 24.2021C23.1334 25.9427 22.4465 28.441 23.2177 31.0445Z" fill="#06C996"/>
<path d="M29.2011 45.7491C26.4583 45.7491 24.2264 47.9809 24.2264 50.7225C24.2264 53.4665 26.4583 55.6984 29.2011 55.6984C31.9451 55.6984 34.177 53.4665 34.177 50.7225V45.7491H29.2011ZM29.2011 57.2678C25.5929 57.2678 22.6582 54.3319 22.6582 50.7225C22.6582 47.1156 25.5929 44.1809 29.2011 44.1809H35.7452V50.7225C35.7452 54.3319 32.8092 57.2678 29.2011 57.2678Z" fill="#E4E4E7"/>
<defs>
<radialGradient id="paint0_radial_1936_3778" cx="0" cy="0" r="1" gradientUnits="userSpaceOnUse" gradientTransform="translate(40 40) rotate(90) scale(40)">
<stop offset="0.115" stop-color="#04DEA5"/>
<stop offset="1"/>
</radialGradient>
</defs>
</svg>
