<svg width="512" height="512" viewBox="0 0 512 512" fill="none" xmlns="http://www.w3.org/2000/svg">
<path d="M82.8843 183.866C84.1738 183.864 85.4633 183.862 86.7918 183.86C90.3554 183.853 93.919 183.854 97.4826 183.855C101.332 183.855 105.181 183.849 109.031 183.845C116.567 183.836 124.103 183.834 131.638 183.833C137.766 183.833 143.893 183.831 150.02 183.827C167.404 183.819 184.787 183.814 202.171 183.815C203.107 183.815 204.044 183.815 205.009 183.815C205.946 183.815 206.884 183.815 207.85 183.815C223.045 183.815 238.24 183.806 253.435 183.792C269.048 183.777 284.662 183.77 300.276 183.771C309.037 183.772 317.798 183.769 326.559 183.758C334.019 183.749 341.478 183.747 348.937 183.754C352.74 183.757 356.543 183.757 360.345 183.748C364.475 183.739 368.605 183.745 372.734 183.753C373.926 183.748 375.118 183.743 376.346 183.737C390.147 183.794 402.865 185.866 413 196C424.466 209.432 424.674 223.786 424.576 240.641C424.562 244.021 424.597 247.398 424.634 250.777C424.635 252.935 424.634 255.093 424.629 257.25C424.642 258.255 424.655 259.261 424.669 260.296C424.606 264.989 424.537 267.274 421.679 271.133C418.125 273.61 416.246 273.758 412 273C409.073 270.957 407.265 269.358 406.562 265.761C406.407 262.95 406.413 260.178 406.468 257.363C406.464 255.811 406.464 255.811 406.459 254.228C406.445 249.814 406.49 245.401 406.53 240.988C406.55 237.758 406.541 234.53 406.531 231.301C406.551 230.318 406.57 229.336 406.59 228.323C406.562 220.679 404.592 214.352 399.663 208.38C392.279 201.495 382.459 201.566 372.981 201.619C371.69 201.614 370.398 201.61 369.067 201.605C365.502 201.593 361.937 201.599 358.371 201.608C354.519 201.615 350.666 201.604 346.813 201.596C339.273 201.583 331.734 201.586 324.194 201.594C318.065 201.601 311.936 201.602 305.807 201.599C304.497 201.598 304.497 201.598 303.161 201.597C301.387 201.596 299.613 201.595 297.839 201.594C281.214 201.586 264.589 201.596 247.964 201.612C233.707 201.625 219.451 201.623 205.194 201.609C188.628 201.593 172.061 201.587 155.495 201.596C153.727 201.597 151.96 201.598 150.193 201.599C149.323 201.599 148.454 201.6 147.558 201.6C141.438 201.603 135.318 201.598 129.198 201.591C121.737 201.583 114.277 201.585 106.816 201.601C103.011 201.609 99.2067 201.612 95.4021 201.602C91.2739 201.592 87.1462 201.604 83.018 201.619C81.8208 201.612 80.6236 201.606 79.3902 201.599C70.3587 201.662 62.0438 202.917 54.9997 209C49.6147 216.516 48.8458 223.737 48.866 232.843C48.8637 233.602 48.8615 234.361 48.8591 235.143C48.8528 237.671 48.8536 240.198 48.8544 242.726C48.8514 244.545 48.848 246.364 48.8443 248.183C48.8354 253.113 48.8331 258.043 48.8325 262.972C48.8317 266.055 48.8296 269.137 48.827 272.22C48.8177 282.98 48.8136 293.741 48.8144 304.502C48.815 314.521 48.8044 324.541 48.7887 334.56C48.7756 343.173 48.7702 351.785 48.7709 360.398C48.7711 365.537 48.7683 370.677 48.7577 375.816C48.748 380.651 48.7479 385.485 48.7552 390.32C48.7562 392.09 48.7539 393.86 48.7478 395.63C48.3121 412.992 48.3121 412.992 55.9997 428C63.2858 433.329 69.9054 434.15 78.7743 434.131C79.6578 434.134 80.5413 434.136 81.4515 434.138C84.4117 434.144 87.3718 434.143 90.332 434.142C92.4543 434.145 94.5766 434.149 96.6989 434.152C101.269 434.16 105.839 434.166 110.408 434.169C117.631 434.175 124.853 434.191 132.075 434.21C134.548 434.216 137.02 434.223 139.492 434.229C140.729 434.232 141.967 434.235 143.243 434.239C160.058 434.281 176.872 434.314 193.687 434.326C205.03 434.334 216.373 434.357 227.716 434.395C233.72 434.415 239.723 434.428 245.727 434.423C251.37 434.418 257.013 434.432 262.656 434.46C264.73 434.467 266.803 434.467 268.877 434.459C271.703 434.451 274.527 434.466 277.352 434.488C278.59 434.475 278.59 434.475 279.853 434.462C283.489 434.514 285.57 434.673 288.507 436.907C290.577 439.81 290.566 441.636 290.398 445.098C289.791 447.998 288.335 449.283 286 451C282.764 452.618 279.219 452.141 275.664 452.134C274.792 452.136 273.919 452.138 273.02 452.141C270.078 452.147 267.137 452.146 264.195 452.145C262.093 452.148 259.99 452.152 257.888 452.156C252.163 452.164 246.437 452.167 240.711 452.167C235.933 452.168 231.155 452.172 226.376 452.176C215.098 452.184 203.819 452.186 192.54 452.185C180.91 452.185 169.281 452.195 157.651 452.211C147.668 452.224 137.684 452.23 127.701 452.229C121.739 452.229 115.776 452.232 109.813 452.242C104.199 452.252 98.5847 452.252 92.9705 452.245C90.9139 452.244 88.8572 452.246 86.8006 452.252C83.984 452.26 81.1676 452.255 78.351 452.247C77.545 452.253 76.7389 452.258 75.9084 452.263C63.5597 452.189 51.8995 448.871 42.6247 440.375C35.0289 432.161 31.8499 422.779 31.8525 411.848C31.8489 411.02 31.8452 410.191 31.8414 409.337C31.8304 406.556 31.8265 403.775 31.8227 400.994C31.8164 399.001 31.8098 397.009 31.8028 395.016C31.7818 388.468 31.7714 381.92 31.7614 375.371C31.7574 373.115 31.7533 370.86 31.7491 368.604C31.73 358.004 31.7158 347.403 31.7075 336.803C31.6977 324.576 31.6714 312.349 31.631 300.123C31.6008 290.667 31.586 281.211 31.5827 271.755C31.5803 266.11 31.5714 260.466 31.5462 254.821C31.5229 249.506 31.5187 244.192 31.529 238.877C31.5295 236.932 31.5232 234.987 31.5094 233.042C31.4126 218.536 32.4882 206.989 42.9997 196C54.8289 184.897 67.343 183.846 82.8843 183.866Z" fill="white"/>
<path d="M443.992 304.433C463.02 320.669 476.874 341.575 480 367C480.654 380.544 480.712 393.878 477 407C476.721 408.016 476.443 409.031 476.156 410.078C469.026 433.558 453.551 453.279 432 465C409.396 476.934 381.463 480.655 356.742 473.254C354.889 472.633 354.889 472.633 353 472C352.045 471.686 352.045 471.686 351.071 471.366C328.198 463.675 309.766 447.752 298.75 426.25C286.735 401.738 284.169 373.916 292.898 347.955C298.292 332.977 306.737 321.123 318 310C318.688 309.313 319.376 308.626 320.086 307.918C353.662 276.538 408.607 276.55 443.992 304.433ZM357 306C355.948 306.35 354.896 306.701 353.812 307.062C334.967 314.129 321.215 328.389 312.429 346.179C304.019 365.568 301.922 386.889 309 407C312.496 415.649 316.881 423.921 323 431C323.581 431.723 324.162 432.446 324.761 433.191C337.988 449.047 357.749 458.248 378.111 460.202C398.889 461.588 419.959 454.824 435.704 441.093C451.151 427.044 462.212 408.743 463.375 387.508C464.059 365.843 458.99 344.118 444.047 327.668C428.985 311.75 409.777 302.243 387.7 301.598C376.849 301.47 367.296 302.506 357 306Z" fill="white"/>
<path d="M78.2769 35.3528C80.2155 35.3397 80.2155 35.3397 82.1932 35.3263C85.71 35.3036 89.226 35.3122 92.7427 35.3282C96.4403 35.3409 100.138 35.3291 103.835 35.3212C110.042 35.3122 116.249 35.3241 122.456 35.3479C129.61 35.3751 136.763 35.3663 143.917 35.3388C150.083 35.316 156.249 35.313 162.415 35.326C166.087 35.3338 169.759 35.3349 173.432 35.3183C177.529 35.3011 181.625 35.325 185.722 35.3528C186.924 35.3427 188.125 35.3326 189.363 35.3222C201.099 35.469 208.586 40.115 217.25 47.6248C218.732 48.8774 220.215 50.1287 221.699 51.3787C222.788 52.3013 222.788 52.3013 223.9 53.2425C226.9 55.753 229.972 58.1646 233.062 60.5623C236.821 63.4815 240.544 66.4338 244.214 69.4646C244.928 70.0524 245.641 70.6401 246.376 71.2456C247.754 72.3835 249.127 73.526 250.496 74.6739C251.126 75.1939 251.756 75.714 252.406 76.2498C252.956 76.7087 253.505 77.1676 254.072 77.6404C260.778 82.3697 266.29 82.4168 274.272 82.3528C276.122 82.3561 276.122 82.3561 278.009 82.3594C280.684 82.3625 283.359 82.3603 286.033 82.3494C290.271 82.3329 294.508 82.3415 298.746 82.3542C310.034 82.3843 321.322 82.3829 332.61 82.3639C340.029 82.3516 347.447 82.3536 354.867 82.3823C359.071 82.3975 363.274 82.3902 367.478 82.3656C370.722 82.3531 373.966 82.3732 377.21 82.388C378.361 82.3746 379.513 82.3613 380.699 82.3476C388.094 82.4224 393.873 83.6905 400 87.9998C405.561 93.8652 408.236 99.4103 408.29 107.563C408.303 108.871 408.316 110.179 408.329 111.526C408.332 112.946 408.334 114.365 408.336 115.785C408.342 117.248 408.349 118.711 408.356 120.174C408.368 123.235 408.371 126.295 408.37 129.356C408.37 133.275 408.397 137.195 408.432 141.114C408.454 144.133 408.458 147.152 408.457 150.171C408.459 151.616 408.468 153.062 408.484 154.507C408.503 156.527 408.495 158.547 408.485 160.566C408.488 161.715 408.491 162.863 408.494 164.047C407.894 167.63 406.829 168.796 404 171C401.26 171.728 398.767 171.58 396 171C393.568 169.13 392.359 167.718 391 165C390.895 163.076 390.854 161.148 390.842 159.221C390.826 157.404 390.826 157.404 390.811 155.55C390.803 154.235 390.796 152.921 390.789 151.566C390.776 150.209 390.762 148.851 390.747 147.493C390.686 141.722 390.632 135.95 390.598 130.178C390.577 126.649 390.542 123.119 390.497 119.59C390.476 117.589 390.471 115.589 390.466 113.589C390.441 111.767 390.441 111.767 390.416 109.908C390.408 108.837 390.4 107.766 390.392 106.663C389.933 103.549 389.469 102.867 387 101C384.608 100.549 384.608 100.549 381.885 100.621C380.297 100.609 380.297 100.609 378.678 100.596C376.936 100.606 376.936 100.606 375.16 100.615C373.936 100.61 372.713 100.604 371.453 100.599C368.791 100.589 366.13 100.585 363.468 100.589C359.252 100.596 355.036 100.58 350.82 100.561C341.859 100.523 332.898 100.51 323.937 100.5C314.287 100.489 304.636 100.473 294.986 100.429C290.803 100.411 286.62 100.407 282.437 100.414C279.207 100.416 275.976 100.399 272.745 100.385C271.025 100.394 271.025 100.394 269.27 100.403C258.349 100.32 250.469 98.2621 242.25 90.9998C240.86 89.8216 239.469 88.6445 238.078 87.4685C237.393 86.882 236.707 86.2955 236.002 85.6912C233.065 83.2102 230.038 80.8533 227 78.4998C221.158 73.9453 215.403 69.2906 209.679 64.5896C208.458 63.5904 207.229 62.6001 205.992 61.6211C204 59.9998 204 59.9998 202.323 58.4163C196.384 53.1874 191.065 53.1543 183.389 53.2552C182.144 53.2479 180.899 53.2406 179.617 53.233C176.224 53.2197 172.833 53.233 169.44 53.2597C165.884 53.2824 162.327 53.2741 158.77 53.2702C152.804 53.2685 146.839 53.2905 140.873 53.3274C133.976 53.3699 127.079 53.3768 120.182 53.3643C113.538 53.3529 106.895 53.3642 100.252 53.3867C97.4271 53.3959 94.6023 53.3977 91.7774 53.3935C87.8391 53.389 83.9014 53.4179 79.9632 53.4505C78.7897 53.4455 77.6161 53.4406 76.407 53.4355C75.3375 53.4496 74.2679 53.4638 73.1659 53.4784C72.2351 53.4825 71.3044 53.4866 70.3454 53.4908C67.8784 53.8099 67.8784 53.8099 66.1999 55.7454C64.8558 58.2698 64.6257 59.7488 64.6278 62.592C64.621 63.5088 64.6143 64.4257 64.6073 65.3703C64.615 66.3689 64.6228 67.3675 64.6307 68.3963C64.6269 69.4536 64.6232 70.5109 64.6193 71.6002C64.6129 73.8957 64.6132 76.1913 64.6195 78.4868C64.6286 82.1177 64.6184 85.7482 64.6029 89.3791C64.5627 99.702 64.5616 110.025 64.5638 120.348C64.5639 126.661 64.5447 132.975 64.5145 139.288C64.5036 142.869 64.5158 146.45 64.5283 150.03C64.5194 152.221 64.5093 154.412 64.4979 156.603C64.5076 157.602 64.5174 158.6 64.5274 159.629C64.457 166.371 64.457 166.371 62.0935 169.619C58.7383 171.832 55.8753 171.668 51.9996 171C48.7635 169.257 48.1757 168.528 46.9996 165C46.9047 163.52 46.8647 162.037 46.8592 160.555C46.8535 159.645 46.8477 158.735 46.8419 157.798C46.8407 156.802 46.8396 155.806 46.8385 154.78C46.8335 153.73 46.8285 152.679 46.8234 151.596C46.8088 148.112 46.802 144.628 46.7965 141.144C46.7907 138.724 46.785 136.304 46.7792 133.883C46.7687 128.803 46.7629 123.723 46.7594 118.643C46.7539 112.141 46.7299 105.639 46.7014 99.1369C46.6827 94.1346 46.6776 89.1322 46.676 84.1298C46.673 81.7333 46.665 79.3368 46.6518 76.9403C46.6347 73.5821 46.6367 70.2245 46.6432 66.8663C46.6339 65.8805 46.6247 64.8947 46.6152 63.8791C46.6633 55.8988 48.4282 49.0278 53.3876 42.5922C60.3517 35.7125 69.0169 35.2748 78.2769 35.3528Z" fill="white"/>
<path d="M388 330C390.365 331.867 391.66 333.321 393 336C393.087 338.699 393.116 341.372 393.098 344.07C393.096 344.867 393.095 345.663 393.093 346.483C393.088 349.031 393.075 351.578 393.062 354.125C393.057 355.85 393.053 357.576 393.049 359.301C393.038 363.534 393.021 367.767 393 372C394.07 371.99 395.139 371.979 396.241 371.968C400.214 371.932 404.188 371.909 408.161 371.89C409.88 371.88 411.599 371.867 413.317 371.849C415.79 371.825 418.262 371.814 420.734 371.805C421.501 371.794 422.268 371.784 423.058 371.773C426.841 371.773 429.84 371.779 433 374C435.3 377.22 435.553 380.126 435 384C433.026 386.638 431.441 388.667 428.118 389.435C425.869 389.578 423.671 389.563 421.418 389.488C420.604 389.481 419.79 389.474 418.951 389.467C416.362 389.439 413.776 389.376 411.188 389.313C409.428 389.287 407.668 389.265 405.908 389.244C401.605 389.189 397.303 389.103 393 389C393.016 390.064 393.031 391.129 393.048 392.225C393.102 396.186 393.136 400.146 393.165 404.106C393.18 405.818 393.2 407.53 393.226 409.242C393.263 411.707 393.28 414.172 393.293 416.637C393.308 417.398 393.324 418.16 393.34 418.945C393.341 423.475 392.895 426.45 390 430C385.838 431.885 383.949 432.351 379.625 430.75C377 429 377 429 376 427C375.913 424.156 375.884 421.336 375.902 418.492C375.904 417.652 375.905 416.811 375.907 415.945C375.912 413.255 375.925 410.565 375.938 407.875C375.943 406.053 375.947 404.232 375.951 402.41C375.962 397.94 375.979 393.47 376 389C374.87 389.021 373.74 389.042 372.575 389.064C368.378 389.136 364.182 389.182 359.984 389.22C358.169 389.24 356.353 389.267 354.537 389.302C351.926 389.35 349.315 389.373 346.703 389.391C345.893 389.411 345.082 389.432 344.247 389.453C340.645 389.455 338.472 389.344 335.519 387.19C333.352 384.065 333 381.786 333 378C334.766 375.198 336.03 373.485 339 372C341.772 371.913 344.518 371.885 347.289 371.902C348.517 371.905 348.517 371.905 349.769 371.907C352.388 371.912 355.006 371.925 357.625 371.938C359.398 371.943 361.172 371.947 362.945 371.951C367.297 371.962 371.648 371.98 376 372C375.974 370.87 375.948 369.74 375.921 368.575C375.83 364.379 375.773 360.182 375.725 355.984C375.7 354.169 375.666 352.353 375.623 350.537C375.562 347.926 375.534 345.315 375.512 342.703C375.486 341.893 375.46 341.082 375.434 340.247C375.432 336.305 375.595 334.441 378.308 331.487C381.837 329.537 384.025 329.422 388 330Z" fill="white"/>
</svg>
