<svg width="512" height="512" viewBox="0 0 512 512" fill="none" xmlns="http://www.w3.org/2000/svg">
<path d="M146.102 63.4821C147.543 63.4766 148.983 63.4695 150.424 63.4608C154.285 63.4428 158.146 63.4496 162.007 63.4623C166.068 63.4726 170.129 63.463 174.19 63.4568C180.996 63.4496 187.802 63.459 194.607 63.4782C202.465 63.5 210.323 63.4928 218.181 63.4708C224.953 63.4527 231.725 63.4501 238.498 63.4606C242.532 63.4668 246.566 63.4677 250.6 63.4545C254.385 63.4429 258.17 63.4509 261.955 63.474C263.341 63.4793 264.727 63.4778 266.113 63.469C279.062 63.394 279.062 63.394 284 67.9996C287.628 71.8189 288.31 74.8824 288.5 79.9996C288.31 85.1168 287.628 88.1803 284 91.9996C278.317 97.1513 272.509 96.5632 265.117 96.5138C263.169 96.5245 263.169 96.5245 261.182 96.5354C258.365 96.5507 255.548 96.5535 252.731 96.5466C248.266 96.5358 243.801 96.5533 239.337 96.5744C232.264 96.6047 225.192 96.6164 218.12 96.62C205.481 96.6267 192.843 96.6559 180.205 96.7051C175.777 96.7215 171.35 96.727 166.923 96.7235C164.824 96.7232 162.725 96.7273 160.626 96.7333C158.082 96.7403 155.538 96.7404 152.994 96.7318C136.041 96.8116 122.458 99.8784 110.059 111.879C99.0176 123.683 96.8376 137.954 96.8664 153.498C96.863 154.868 96.863 154.868 96.8595 156.266C96.8532 159.303 96.854 162.34 96.8548 165.378C96.8518 167.565 96.8484 169.752 96.8447 171.939C96.8359 177.865 96.8335 183.79 96.8329 189.716C96.8321 193.423 96.83 197.129 96.8274 200.836C96.8186 213.113 96.8139 225.389 96.8147 237.666C96.8147 238.657 96.8147 238.657 96.8148 239.668C96.8149 240.66 96.8149 240.66 96.8149 241.672C96.8153 251.718 96.8075 261.764 96.7943 271.81C96.779 283.5 96.7705 295.189 96.7713 306.879C96.7715 313.058 96.7687 319.237 96.7581 325.416C96.7484 331.231 96.7483 337.045 96.7556 342.86C96.7566 344.986 96.7543 347.113 96.7482 349.239C96.6946 369.33 97.1552 386.727 111.879 401.941C123.337 412.659 137.293 415.161 152.461 415.133C153.382 415.136 154.304 415.138 155.253 415.14C158.323 415.147 161.394 415.146 164.464 415.145C166.672 415.148 168.881 415.151 171.089 415.155C177.077 415.164 183.064 415.166 189.052 415.167C192.796 415.168 196.541 415.17 200.285 415.172C212.683 415.181 225.081 415.186 237.48 415.185C238.147 415.185 238.814 415.185 239.502 415.185C240.504 415.185 240.504 415.185 241.527 415.185C252.35 415.184 263.173 415.194 273.995 415.208C285.129 415.222 296.262 415.229 307.395 415.228C313.637 415.228 319.879 415.231 326.122 415.242C331.995 415.251 337.869 415.251 343.742 415.244C345.892 415.243 348.041 415.245 350.19 415.251C370.064 415.304 386.954 414.625 401.942 400.121C414.017 387.211 415.149 371.626 415.142 354.772C415.147 352.779 415.153 350.786 415.158 348.792C415.163 346.667 415.166 344.541 415.169 342.415C415.175 337.973 415.191 333.53 415.21 329.088C415.216 327.563 415.223 326.037 415.229 324.512C415.232 323.749 415.235 322.985 415.239 322.199C415.281 311.869 415.314 301.539 415.326 291.209C415.334 284.222 415.357 277.235 415.395 270.249C415.415 266.557 415.428 262.866 415.423 259.175C415.417 255.063 415.442 250.951 415.47 246.839C415.463 245.621 415.457 244.404 415.45 243.15C415.521 236.805 415.667 232.788 420 228C423.819 224.371 426.883 223.69 432 223.5C438.522 223.742 441.69 225.522 446.124 230.277C449.46 235.466 448.556 242.001 448.518 247.937C448.523 249.362 448.53 250.787 448.539 252.211C448.557 256.074 448.55 259.935 448.537 263.798C448.527 267.855 448.537 271.911 448.543 275.968C448.55 282.79 448.541 289.612 448.522 296.433C448.5 304.286 448.507 312.138 448.529 319.991C448.547 326.755 448.55 333.52 448.539 340.284C448.533 344.314 448.532 348.344 448.545 352.373C448.557 356.173 448.549 359.972 448.526 363.772C448.518 365.805 448.53 367.838 448.542 369.871C448.433 381.952 445.949 393.564 440.25 404.312C439.735 405.309 439.735 405.309 439.209 406.326C436.117 412.122 432.445 417.155 428 422C427.336 422.755 426.672 423.51 425.988 424.289C417.097 433.854 405.409 440.981 393 445C391.96 445.369 391.96 445.369 390.899 445.746C379.837 449.128 368.376 448.428 356.927 448.404C354.486 448.409 352.046 448.416 349.605 448.424C343.686 448.441 337.767 448.443 331.848 448.437C327.032 448.433 322.216 448.435 317.4 448.44C316.712 448.441 316.024 448.442 315.316 448.442C313.918 448.444 312.52 448.445 311.122 448.447C298.039 448.461 284.957 448.455 271.874 448.444C259.935 448.434 247.996 448.447 236.056 448.471C223.765 448.495 211.473 448.505 199.182 448.498C192.294 448.495 185.406 448.497 178.518 448.514C172.038 448.531 165.558 448.526 159.078 448.507C156.709 448.503 154.34 448.506 151.971 448.517C136.157 448.582 121.953 447.814 107.688 440.25C107.023 439.906 106.358 439.562 105.674 439.208C99.8774 436.116 94.8445 432.445 90.0001 428C89.2447 427.336 88.4893 426.672 87.711 425.988C78.1453 417.096 71.0189 405.408 67.0001 393C66.6306 391.959 66.6306 391.959 66.2535 390.898C62.8715 379.836 63.5719 368.376 63.5961 356.926C63.5903 354.486 63.5834 352.045 63.5753 349.605C63.5592 343.686 63.5572 337.767 63.5625 331.848C63.5665 327.032 63.5651 322.216 63.5597 317.4C63.5586 316.368 63.5586 316.368 63.5574 315.315C63.5559 313.917 63.5544 312.519 63.5528 311.122C63.5391 298.039 63.5445 284.956 63.556 271.874C63.566 259.934 63.553 247.995 63.5291 236.056C63.5046 223.764 63.4951 211.473 63.5017 199.181C63.5052 192.293 63.5031 185.406 63.4855 178.518C63.4691 172.037 63.474 165.557 63.4928 159.077C63.4965 156.708 63.4934 154.339 63.4829 151.97C63.418 136.112 64.1924 121.913 71.8126 107.625C72.1595 106.957 72.5064 106.289 72.8639 105.601C82.8007 86.9561 99.4483 73.4826 119.416 66.8682C128.435 64.309 136.677 63.4239 146.102 63.4821Z" fill="#BCBCBC"/>
<path d="M428.531 75.0975C437.346 81.8897 443.829 92.3612 445.75 103.406C447.262 119.098 444.96 131.716 436 145C433.572 147.891 430.937 150.512 428.223 153.133C427.493 153.854 426.763 154.576 426.012 155.319C423.705 157.598 421.384 159.862 419.062 162.125C416.747 164.398 414.434 166.674 412.124 168.952C410.694 170.361 409.26 171.766 407.823 173.166C404.632 176.294 401.558 179.454 398.648 182.845C394.263 187.934 389.488 192.617 384.719 197.344C383.736 198.322 382.754 199.3 381.772 200.279C378.163 203.875 374.548 207.466 370.933 211.057C367.866 214.103 364.801 217.152 361.74 220.204C360.32 221.617 358.897 223.028 357.474 224.438C353.698 228.2 349.973 231.954 346.5 236C342.171 241.043 337.437 245.668 332.719 250.344C331.736 251.322 330.754 252.3 329.772 253.279C326.163 256.875 322.548 260.466 318.933 264.057C315.866 267.103 312.801 270.152 309.74 273.204C308.32 274.617 306.897 276.028 305.474 277.438C298.435 284.451 291.965 291.322 286.59 299.687C279.881 309.083 272.275 318.14 260.549 320.775C250.955 322.125 241.357 322.162 231.687 321.937C230.981 321.923 230.274 321.908 229.546 321.894C224.758 321.787 219.982 321.593 215.199 321.34C213.959 321.275 212.72 321.209 211.442 321.142C203.576 320.558 199.261 319.351 193.658 313.594C191.08 308.007 191.43 302.58 191.469 296.5C191.465 295.191 191.461 293.882 191.457 292.533C191.451 289.769 191.46 287.006 191.478 284.242C191.501 280.711 191.488 277.182 191.464 273.651C191.446 270.267 191.459 266.884 191.469 263.5C191.461 262.237 191.452 260.975 191.444 259.674C191.56 248.822 191.56 248.822 196 244C196.471 243.485 196.941 242.969 197.426 242.439C199.063 240.689 200.748 239 202.453 237.316C203.382 236.388 203.382 236.388 204.329 235.442C205.634 234.139 206.942 232.839 208.252 231.542C210.235 229.577 212.21 227.605 214.183 225.631C215.46 224.359 216.738 223.087 218.015 221.816C218.596 221.237 219.176 220.657 219.775 220.061C222.697 217.171 225.67 214.393 228.79 211.716C233.889 207.3 238.597 202.508 243.344 197.719C244.322 196.736 245.3 195.754 246.279 194.772C249.355 191.684 252.428 188.592 255.5 185.5C259.065 181.911 262.633 178.323 266.204 174.74C267.617 173.32 269.028 171.897 270.438 170.474C274.812 166.084 279.242 161.867 283.943 157.832C288.26 153.987 292.276 149.823 296.344 145.719C297.322 144.736 298.3 143.754 299.279 142.772C302.355 139.684 305.428 136.592 308.5 133.5C312.065 129.911 315.633 126.323 319.204 122.74C320.617 121.32 322.028 119.897 323.438 118.474C327.886 114.009 332.392 109.71 337.176 105.606C340.117 103.016 342.829 100.217 345.555 97.4022C346.759 96.1758 347.963 94.9499 349.168 93.7245C351.024 91.8312 352.877 89.9351 354.722 88.0309C361.592 80.9522 368 74.3599 377 69.9999C377.653 69.679 378.306 69.3582 378.979 69.0277C395.005 61.6819 414.473 65.5435 428.531 75.0975ZM378.601 111.238C377.808 112.037 377.014 112.836 376.196 113.659C373.667 116.206 371.146 118.758 368.625 121.312C366.11 123.855 363.594 126.395 361.075 128.933C359.512 130.509 357.951 132.087 356.394 133.668C353.057 137.035 349.702 140.31 346.105 143.397C341.032 147.766 336.367 152.528 331.656 157.281C330.678 158.264 329.7 159.246 328.721 160.228C325.645 163.315 322.572 166.407 319.5 169.5C315.934 173.089 312.367 176.677 308.796 180.26C307.382 181.68 305.972 183.103 304.562 184.525C300.188 188.916 295.758 193.132 291.057 197.168C286.74 201.013 282.724 205.176 278.656 209.281C277.678 210.264 276.7 211.246 275.721 212.228C272.645 215.315 269.572 218.407 266.5 221.5C262.934 225.089 259.367 228.677 255.796 232.26C254.382 233.68 252.972 235.103 251.562 236.525C245.561 242.549 239.559 248.52 232.594 253.43C227.95 257.1 224.542 259.957 223.467 265.991C222.956 273.346 223.336 280.666 224 288C238.322 290.172 238.322 290.172 251.838 286.362C256.826 282.33 260.999 277.599 264.95 272.56C270.915 265.11 277.507 258.37 284.281 251.656C285.264 250.678 286.246 249.7 287.228 248.721C290.837 245.125 294.452 241.534 298.067 237.943C301.134 234.896 304.198 231.847 307.26 228.796C308.68 227.382 310.103 225.972 311.525 224.562C315.301 220.8 319.027 217.045 322.5 213C326.829 207.957 331.563 203.332 336.281 198.656C337.264 197.678 338.246 196.7 339.228 195.721C342.837 192.125 346.452 188.534 350.067 184.943C353.134 181.896 356.198 178.847 359.26 175.796C360.68 174.382 362.103 172.972 363.525 171.562C367.966 167.139 372.237 162.658 376.318 157.902C379.327 154.499 382.586 151.351 385.832 148.176C387.304 146.721 388.776 145.266 390.248 143.81C392.54 141.549 394.835 139.29 397.134 137.037C399.374 134.84 401.603 132.633 403.832 130.426C404.521 129.755 405.211 129.084 405.921 128.393C410.449 123.889 413.256 120.233 413.375 113.625C413.243 108.669 412.001 105.949 409 102C404.716 98.8378 400.713 98.6276 395.562 98.5038C388.498 99.8715 383.422 106.332 378.601 111.238Z" fill="#BCBCBC"/>
</svg>
